<?xml version="1.0" standalone="no"?><!DOCTYPE svg PUBLIC "-//W3C//DTD SVG 1.1//EN" "http://www.w3.org/Graphics/SVG/1.1/DTD/svg11.dtd"><svg class="icon" width="64px" height="64.00px" viewBox="0 0 1024 1024" version="1.1" xmlns="http://www.w3.org/2000/svg"><path d="M1006.344828 572.027586v-459.034483s0-35.310345-21.186207-67.089655C971.034483 21.186207 942.786207 0 889.82069 0H134.17931S17.655172 0 17.655172 116.524138v773.296552s0 35.310345 21.186207 67.089655c17.655172 24.717241 45.903448 45.903448 95.337931 45.903448h755.64138s116.524138 0 116.524138-116.524138v-314.262069z m-56.496552 317.793104c-3.531034 56.496552-56.496552 56.496552-56.496552 56.496551H127.117241c-7.062069 0-24.717241-7.062069-35.310344-17.655172-14.124138-14.124138-17.655172-31.77931-17.655173-38.841379V116.524138c3.531034-56.496552 56.496552-56.496552 56.496552-56.496552h766.234483c7.062069 0 24.717241 7.062069 35.310344 17.655173 14.124138 14.124138 17.655172 31.77931 17.655173 38.841379v773.296552z" fill="#333333" /><path d="M236.57931 451.972414c3.531034-14.124138 3.531034-24.717241 3.531035-31.779311 0-7.062069 0-17.655172-3.531035-31.77931 17.655172 3.531034 38.841379 3.531034 52.965518 3.531035H335.448276c17.655172 0 31.77931 0 45.903448-3.531035-3.531034 24.717241-7.062069 49.434483-7.062069 70.62069v218.924138c17.655172-21.186207 35.310345-38.841379 52.965517-56.496552 7.062069 21.186207 14.124138 42.372414 21.186207 52.965517-38.841379 31.77931-77.682759 70.62069-120.055172 120.055173-10.593103-17.655172-21.186207-31.77931-31.77931-49.434483 17.655172-17.655172 28.248276-35.310345 28.248275-52.965517v-243.64138h-35.310344c-21.186207 0-35.310345 0-52.965518 3.531035z m49.434483-211.862069c17.655172-7.062069 35.310345-14.124138 49.434483-24.717242 10.593103 31.77931 31.77931 63.558621 60.027586 95.337931-17.655172 7.062069-35.310345 14.124138-49.434483 24.717242C321.324138 289.544828 300.137931 257.765517 286.013793 240.110345z m141.241379 180.082758c3.531034-14.124138 3.531034-24.717241 3.531035-31.77931s0-17.655172-3.531035-31.77931c28.248276 3.531034 45.903448 3.531034 52.965518 3.531034h155.365517c10.593103 0 28.248276 0 49.434483-3.531034-3.531034 14.124138-3.531034 24.717241-3.531035 31.77931 0 7.062069 0 17.655172 3.531035 31.77931-14.124138-3.531034-28.248276-3.531034-45.903449-3.531034h-158.896551c-17.655172 0-35.310345 0-52.965518 3.531034z m21.186207-127.117241c0-14.124138 3.531034-24.717241 3.531035-31.77931 0-7.062069 0-17.655172-3.531035-31.779311 21.186207 3.531034 38.841379 3.531034 49.434483 3.531035h233.048276c10.593103 0 28.248276 0 52.965517-3.531035-3.531034 17.655172-3.531034 35.310345-3.531034 52.965518v459.034482c0 21.186207-7.062069 35.310345-21.186207 42.372414s-42.372414 17.655172-81.213793 21.186207c-3.531034-24.717241-14.124138-45.903448-31.779311-67.089655 17.655172 3.531034 31.77931 3.531034 42.372414 3.531034 14.124138 0 24.717241 0 28.248276-3.531034 3.531034-3.531034 7.062069-10.593103 7.062069-21.186207V289.544828h-222.455172c-14.124138 0-31.77931 3.531034-52.965518 3.531034z m7.062069 459.034483c3.531034-17.655172 3.531034-35.310345 3.531035-49.434483v-183.613793c0-14.124138 0-24.717241-3.531035-42.372414 17.655172 3.531034 35.310345 3.531034 49.434483 3.531035h98.868966c17.655172 0 35.310345 0 52.965517-3.531035-3.531034 14.124138-3.531034 28.248276-3.531035 45.903448v155.365518c0 14.124138 0 28.248276 3.531035 49.434482h-52.965517v-14.124137-31.779311h-98.868966v31.779311c0 10.593103 0 24.717241 3.531035 38.841379-10.593103 0-21.186207-3.531034-24.717242-3.531035-3.531034 0-14.124138 3.531034-28.248276 3.531035z m148.303449-222.455173h-98.868966v112.993104h98.868966V529.655172z"  /></svg>