<?xml version="1.0" standalone="no"?><!DOCTYPE svg PUBLIC "-//W3C//DTD SVG 1.1//EN" "http://www.w3.org/Graphics/SVG/1.1/DTD/svg11.dtd"><svg class="icon" width="64px" height="64.00px" viewBox="0 0 1024 1024" version="1.1" xmlns="http://www.w3.org/2000/svg"><path d="M472.604672 945.48992c-19.7888-0.488448-39.993344-1.492992-59.629568-3.987456l-5.13024-0.4864c-150.734848-22.889472-253.458432-167.483392-257.92512-175.29856C21.74464 586.738688 49.717248 339.812352 214.6816 194.041856 370.963456 45.73184 613.72928 38.520832 778.540032 177.293312a541.529088 541.529088 0 0 1 167.483392 253.457408c18.422784 101.04832 3.349504 175.29856-45.21984 223.310848-74.810368 71.45984-198.189056 48.570368-214.9376 45.21984a55.82848 55.82848 0 0 0-51.919872 19.539968 59.736064 59.736064 0 0 0-11.723776 51.919872 126.729216 126.729216 0 0 1 5.024768 87.0912c-29.150208 58.606592-86.575104 84.1216-150.0928 87.54176l-4.549632 0.115712z m-50.484224-56.619008c85.97504 13.398016 139.44832-16.03072 148.760576-38.975488 9.31328-22.944768 10.251264-44.621824 3.330048-59.614208a111.654912 111.654912 0 0 1 20.656128-101.6064 108.305408 108.305408 0 0 1 101.04832-39.078912h2.791424s111.654912 23.447552 167.482368-31.263744c34.613248-33.497088 45.21984-92.115968 30.14656-173.62432a484.026368 484.026368 0 0 0-151.851008-223.310848c-143.285248-123.4944-356.80768-118.428672-494.07488 11.7248C104.307712 360.777728 80.06656 578.95424 194.582528 735.56992c0 0 93.756416 133.179392 223.276032 152.16128l4.261888 1.139712z" fill="#aaa" /><path d="M324.820992 571.662336c-33.068032 0.22528-62.995456-19.550208-75.753472-50.05824-12.75904-30.507008-5.82144-65.69984 17.5616-89.083904 23.38304-23.382016 58.575872-30.32064 89.083904-17.5616 30.508032 12.75904 50.28352 42.68544 50.057216 75.753472 0 44.70784-36.242432 80.950272-80.949248 80.950272z" fill="#00B180" /><path d="M461.661184 389.953536c-44.732416 0-80.996352-36.492288-80.996352-81.508352s36.263936-81.508352 80.996352-81.508352c44.73344 0 80.996352 36.492288 80.996352 81.508352 0 45.01504-36.262912 81.508352-80.996352 81.508352z" fill="#FF8900" /><path d="M684.59008 489.213952c-45.01504 0-81.508352-36.493312-81.508352-81.509376 0-45.01504 36.492288-81.508352 81.508352-81.508352 45.01504 0 81.508352 36.493312 81.508352 81.508352a81.508352 81.508352 0 0 1-81.508352 81.509376z" fill="#0288CC" /></svg>