<?xml version="1.0" standalone="no"?><!DOCTYPE svg PUBLIC "-//W3C//DTD SVG 1.1//EN" "http://www.w3.org/Graphics/SVG/1.1/DTD/svg11.dtd"><svg class="icon" width="64px" height="64.00px" viewBox="0 0 1024 1024" version="1.1" xmlns="http://www.w3.org/2000/svg"><path d="M362.6496 87.4496a30.72 30.72 0 0 0-30.72 30.72v41.472h-130.048c-37.12 0-75.0592 26.88-75.0592 69.0176v632.32c0 42.1376 37.888 69.0176 75.008 69.0176h620.3392c37.0688 0 75.008-26.88 75.008-69.0688V228.6592c0-42.1376-37.888-69.0176-75.008-69.0176h-130.0992v-41.472a30.72 30.72 0 0 0-30.72-30.72H362.6496z m30.72 128v-66.56h237.2608v66.56H393.3696z m-205.1072 13.2096c0-0.512 0.1536-1.9456 2.3552-3.84a17.2544 17.2544 0 0 1 11.264-3.7376H326.144v26.7264a30.72 30.72 0 0 0 30.72 30.72h310.1696a30.72 30.72 0 0 0 30.72-30.72v-26.7264h124.3648c5.12 0 8.96 1.792 11.264 3.7376 2.1504 1.8944 2.304 3.328 2.304 3.84v632.32c0 0.512-0.1536 1.9456-2.3552 3.84a17.2544 17.2544 0 0 1-11.264 3.7376H201.8816a17.2544 17.2544 0 0 1-11.264-3.7376c-2.1504-1.8944-2.304-3.328-2.304-3.8912V228.6592z" fill="#222" /><path d="M284.3648 406.9376a30.72 30.72 0 0 1 30.72-30.72h236.288a30.72 30.72 0 1 1 0 61.44H315.0848a30.72 30.72 0 0 1-30.72-30.72z m0 137.8816a30.72 30.72 0 0 1 30.72-30.72h393.8304a30.72 30.72 0 0 1 0 61.44H315.0848a30.72 30.72 0 0 1-30.72-30.72z" fill="#0288CC" /></svg>