<?xml version="1.0" standalone="no"?><!DOCTYPE svg PUBLIC "-//W3C//DTD SVG 1.1//EN" "http://www.w3.org/Graphics/SVG/1.1/DTD/svg11.dtd"><svg class="icon" width="64px" height="61.08px" viewBox="0 0 1073 1024" version="1.1" xmlns="http://www.w3.org/2000/svg"><path d="M1044.381 365.792l-330.036-48.01-14.437-29.379a33.574 33.574 0 1 0-60.266 30.553l22.327 45.158a33.574 33.574 0 0 0 25.35 18.298l280.178 40.625-202.79 197.082a33.574 33.574 0 0 0-9.234 29.713l47.844 279.17-251.136-131.78a33.574 33.574 0 0 0-31.224 0L270.325 928.835l48.682-279.003a33.574 33.574 0 0 0-9.737-29.713L105.81 422.533l280.346-40.793a33.574 33.574 0 0 0 25.35-18.298l125.735-253.99 25.685 53.384a33.574 33.574 0 1 0 60.265-29.713L566.787 18.802a33.574 33.574 0 0 0-60.266 0l-147.56 298.98-330.203 48.01a33.574 33.574 0 0 0-18.634 57.245l238.881 232.838L192.6 984.568a33.574 33.574 0 0 0 48.683 35.42l295.958-155.113 295.286 155.282a33.574 33.574 0 0 0 48.683-35.421l-57.076-328.861 238.881-232.838a33.574 33.574 0 0 0-18.634-57.245z" fill="#222" /><path d="M611.608 608.87a33.574 33.574 0 0 0 47.34 4.366l100.723-83.937a33.574 33.574 0 1 0-42.975-51.537l-100.724 83.937a33.574 33.574 0 0 0-4.364 47.172z" fill="#FFB243" /></svg>