<?xml version="1.0" standalone="no"?><!DOCTYPE svg PUBLIC "-//W3C//DTD SVG 1.1//EN" "http://www.w3.org/Graphics/SVG/1.1/DTD/svg11.dtd"><svg class="icon" width="64px" height="64.00px" viewBox="0 0 1024 1024" version="1.1" xmlns="http://www.w3.org/2000/svg"><path d="M396.8 358.1696v154.0352c0 70.69184 57.30816 128 128 128s128-57.30816 128-128V358.1696c0-70.69184-57.30816-128-128-128s-128 57.30816-128 128z" fill="#FF8900" /><path d="M563.2 881.536v81.9456a38.4 38.4 0 0 1-76.8 0v-82.0736C277.6064 862.2848 128 691.8656 128 486.4a38.4 38.4 0 0 1 76.8 0c0 176.4352 134.8864 319.5648 320.1024 320 179.2768 0.4096 294.2976-135.8336 294.2976-320a38.4 38.4 0 0 1 76.8 0c0 210.9696-129.7664 376.96-332.8 395.136zM320 230.1696C320 117.1968 411.9296 25.6 524.8 25.6c113.1008 0 204.8 91.776 204.8 204.5696v282.0352c0 112.9728-91.9296 204.5696-204.8 204.5696-113.1008 0-204.8-91.776-204.8-204.5696V230.1696z m76.8 0v282.0352c0 70.69184 57.30816 128 128 128s128-57.30816 128-128V230.1696c0-70.69184-57.30816-128-128-128s-128 57.30816-128 128z" fill="#222" /></svg>