<?xml version="1.0" standalone="no"?><!DOCTYPE svg PUBLIC "-//W3C//DTD SVG 1.1//EN" "http://www.w3.org/Graphics/SVG/1.1/DTD/svg11.dtd"><svg class="icon" width="64px" height="64.00px" viewBox="0 0 1024 1024" version="1.1" xmlns="http://www.w3.org/2000/svg"><path d="M624.5 512h225c63 0 112.5 49.5 112.5 112.5v225c0 63-49.5 112.5-112.5 112.5h-225c-63 0-112.5-49.5-112.5-112.5v-225c0-63 49.5-112.5 112.5-112.5z" fill="#b7ef56" /><path d="M264.5 647c13.5 0 22.5 9 22.5 22.5s-9 22.5-22.5 22.5h-90C111.5 692 62 642.5 62 579.5v-405C62 111.5 111.5 62 174.5 62h405C642.5 62 692 111.5 692 174.5v90c0 13.5-9 22.5-22.5 22.5s-22.5-9-22.5-22.5v-90c0-36-31.5-67.5-67.5-67.5h-405C138.5 107 107 138.5 107 174.5v405c0 36 31.5 67.5 67.5 67.5h90z m180-270C408.5 377 377 408.5 377 444.5v405c0 36 31.5 67.5 67.5 67.5h405c36 0 67.5-31.5 67.5-67.5v-405c0-36-31.5-67.5-67.5-67.5h-405z m0-45h405C912.5 332 962 381.5 962 444.5v405c0 63-49.5 112.5-112.5 112.5h-405C381.5 962 332 912.5 332 849.5v-405C332 381.5 381.5 332 444.5 332z" fill="#191919" /></svg>