<?xml version="1.0" standalone="no"?><!DOCTYPE svg PUBLIC "-//W3C//DTD SVG 1.1//EN" "http://www.w3.org/Graphics/SVG/1.1/DTD/svg11.dtd"><svg class="icon" width="64px" height="64.00px" viewBox="0 0 1024 1024" version="1.1" xmlns="http://www.w3.org/2000/svg"><path d="M672 672m-240 0a240 240 0 1 0 480 0 240 240 0 1 0-480 0Z" fill="#bbb" /><path d="M297.3 827.5L136.5 709.1c-7.5-5.5-18.1-0.9-19.1 8.3-7.8 69.5-20.3 182.9-21.3 192.4-1.3 12 10.3 20.7 21.5 15.9 12-5.2 114.6-50 177.4-77.4 8.5-3.7 9.8-15.2 2.3-20.8zM505.3 157.7l203.8 150c5.3 4 12.9 2.9 16.8-2.5l5.5-7.5c13.9-18.9 29.9-65.6 10.9-79.5L587.8 104.4c-18.9-14-65.6 10.1-79.6 29l-5.5 7.5c-3.9 5.3-2.8 12.9 2.6 16.8zM671.2 351.8L467.5 201.7c-5.3-4-12.9-2.8-16.8 2.5l-304.9 428c-4 5.3-2.8 12.9 2.5 16.8l203.9 150.1c5.3 4 12.9 2.8 16.8-2.5l304.9-428c3.9-5.4 2.8-12.9-2.7-16.8z" fill="#FFDD8C" /><path d="M626.8 723.9c0 19.9 13.4 36.1 29.8 36.1h237.9c16.5 0 29.8-16.1 29.8-36.1 0-19.8-13.4-35.9-29.8-35.9H656.6c-16.4-0.1-29.8 16.1-29.8 35.9zM898.3 854.3H422.9c-16.4 0-29.7 16-29.7 36 0 19.9 13.3 36 29.7 36h475.4c16.4 0 29.7-16.1 29.7-36 0-20-13.3-36-29.7-36z" fill="#FFDD8C" /></svg>