<?xml version="1.0" standalone="no"?><!DOCTYPE svg PUBLIC "-//W3C//DTD SVG 1.1//EN" "http://www.w3.org/Graphics/SVG/1.1/DTD/svg11.dtd"><svg class="icon" width="64px" height="64.00px" viewBox="0 0 1024 1024" version="1.1" xmlns="http://www.w3.org/2000/svg"><path fill="#bbb" d="M701 654.9V740c0 47.8-38.9 86.8-86.8 86.8h-456c-47.8 0-86.8-38.9-86.8-86.8V284c0-47.8 38.9-86.8 86.8-86.8h456c47.8 0 86.8 38.9 86.8 86.8v23.8h71.5V284c0-87.2-71-158.2-158.2-158.2h-456C71 125.8 0 196.8 0 284v456c0 87.2 71 158.2 158.2 158.2h456c87.2 0 158.2-71 158.2-158.2v-85.1H701z"  /><path fill="#FF8900" d="M1018.7 204.1c0.3-1.8 0.4-3.6 0.4-5.4 0-20.5-16.7-37.1-37.1-37.1-2.7 0-5.4 0.3-7.9 0.9l-4.4-4.4-439.2 455.3-223.9-223.9c-7-7-16.3-10.8-26.2-10.8-20.5 0-37.1 16.7-37.1 37.1 0 9.9 3.9 19.3 10.9 26.2l250.5 250.6c7 7 16.3 10.9 26.3 10.9 4.5 0 8.9-0.8 13-2.3l3.4 1.7 461.4-478.5 15.2-15.9-5.3-4.4z"  /></svg>